<svg width="38" height="38" viewBox="0 0 38 38" fill="none" xmlns="http://www.w3.org/2000/svg">
<circle cx="19" cy="19" r="19" fill="#F2F2F2"/>
<path d="M28.0234 19.668C28.0234 20.4648 27.918 21.2344 27.707 21.9766C27.5039 22.7109 27.2148 23.4023 26.8398 24.0508C26.4648 24.6914 26.0117 25.2773 25.4805 25.8086C24.9492 26.3398 24.3633 26.7969 23.7227 27.1797C23.082 27.5547 22.3906 27.8438 21.6484 28.0469C20.9062 28.2578 20.1367 28.3633 19.3398 28.3633C18.543 28.3633 17.7734 28.2578 17.0312 28.0469C16.2969 27.8438 15.6055 27.5547 14.957 27.1797C14.3164 26.7969 13.7305 26.3398 13.1992 25.8086C12.668 25.2773 12.2109 24.6914 11.8281 24.0508C11.4531 23.4023 11.1602 22.7109 10.9492 21.9766C10.7461 21.2344 10.6445 20.4648 10.6445 19.668C10.6445 18.8711 10.7461 18.1016 10.9492 17.3594C11.1602 16.6172 11.4531 15.9258 11.8281 15.2852C12.2109 14.6445 12.668 14.0586 13.1992 13.5273C13.7305 12.9961 14.3164 12.543 14.957 12.168C15.6055 11.793 16.2969 11.5039 17.0312 11.3008C17.7734 11.0898 18.543 10.9844 19.3398 10.9844C20.1367 10.9844 20.9062 11.0898 21.6484 11.3008C22.3906 11.5039 23.082 11.793 23.7227 12.168C24.3633 12.543 24.9492 12.9961 25.4805 13.5273C26.0117 14.0586 26.4648 14.6445 26.8398 15.2852C27.2148 15.9258 27.5039 16.6172 27.707 17.3594C27.918 18.1016 28.0234 18.8711 28.0234 19.668ZM24.6836 19.668C24.6836 18.9336 24.543 18.2422 24.2617 17.5938C23.9805 16.9375 23.5977 16.3711 23.1133 15.8945C22.6367 15.4102 22.0703 15.0273 21.4141 14.7461C20.7656 14.4648 20.0742 14.3242 19.3398 14.3242C18.5977 14.3242 17.9023 14.4648 17.2539 14.7461C16.6055 15.0273 16.0391 15.4102 15.5547 15.8945C15.0703 16.3711 14.6875 16.9375 14.4062 17.5938C14.125 18.2422 13.9844 18.9336 13.9844 19.668C13.9844 20.4023 14.125 21.0938 14.4062 21.7422C14.6875 22.3828 15.0703 22.9453 15.5547 23.4297C16.0391 23.9141 16.6055 24.2969 17.2539 24.5781C17.9023 24.8594 18.5977 25 19.3398 25C20.0742 25 20.7656 24.8594 21.4141 24.5781C22.0703 24.2969 22.6367 23.9141 23.1133 23.4297C23.5977 22.9453 23.9805 22.3828 24.2617 21.7422C24.543 21.0938 24.6836 20.4023 24.6836 19.668Z" fill="#EB5757"/>
</svg>
