<svg width="171" height="171" viewBox="0 0 171 171" fill="none" xmlns="http://www.w3.org/2000/svg">
<rect width="171" height="171" fill="#E0E0E0"/>
<path d="M85 119.48C80.2 119.48 75.848 118.52 71.944 116.6C68.04 114.616 64.68 111.992 61.864 108.728C59.048 105.464 56.872 101.784 55.336 97.688C53.8 93.528 53.032 89.272 53.032 84.92C53.032 80.376 53.832 76.056 55.432 71.96C57.032 67.8 59.272 64.12 62.152 60.92C65.096 57.656 68.52 55.096 72.424 53.24C76.328 51.32 80.552 50.36 85.096 50.36C89.832 50.36 94.152 51.352 98.056 53.336C101.96 55.32 105.32 57.976 108.136 61.304C111.016 64.632 113.192 68.344 114.664 72.44C116.2 76.536 116.968 80.728 116.968 85.016C116.968 89.56 116.168 93.912 114.568 98.072C112.968 102.168 110.728 105.848 107.848 109.112C104.968 112.312 101.576 114.84 97.672 116.696C93.768 118.552 89.544 119.48 85 119.48ZM59.752 84.92C59.752 88.632 60.36 92.184 61.576 95.576C62.792 98.968 64.52 102.008 66.76 104.696C69 107.384 71.656 109.528 74.728 111.128C77.864 112.664 81.288 113.432 85 113.432C88.904 113.432 92.392 112.632 95.464 111.032C98.6 109.368 101.256 107.16 103.432 104.408C105.672 101.656 107.368 98.616 108.52 95.288C109.672 91.896 110.248 88.44 110.248 84.92C110.248 81.208 109.64 77.656 108.424 74.264C107.208 70.872 105.448 67.832 103.144 65.144C100.904 62.456 98.248 60.344 95.176 58.808C92.104 57.272 88.712 56.504 85 56.504C81.16 56.504 77.672 57.304 74.536 58.904C71.464 60.504 68.808 62.68 66.568 65.432C64.392 68.12 62.696 71.16 61.48 74.552C60.328 77.944 59.752 81.4 59.752 84.92Z" fill="#EB5757"/>
</svg>
