<svg width="64" height="70" viewBox="0 0 64 70" fill="none" xmlns="http://www.w3.org/2000/svg">
<path d="M32 69.48C27.2 69.48 22.848 68.52 18.944 66.6C15.04 64.616 11.68 61.992 8.864 58.728C6.048 55.464 3.872 51.784 2.336 47.688C0.8 43.528 0.0320003 39.272 0.0320003 34.92C0.0320003 30.376 0.832 26.056 2.432 21.96C4.032 17.8 6.272 14.12 9.152 10.92C12.096 7.656 15.52 5.096 19.424 3.23999C23.328 1.32 27.552 0.359997 32.096 0.359997C36.832 0.359997 41.152 1.352 45.056 3.336C48.96 5.32 52.32 7.976 55.136 11.304C58.016 14.632 60.192 18.344 61.664 22.44C63.2 26.536 63.968 30.728 63.968 35.016C63.968 39.56 63.168 43.912 61.568 48.072C59.968 52.168 57.728 55.848 54.848 59.112C51.968 62.312 48.576 64.84 44.672 66.696C40.768 68.552 36.544 69.48 32 69.48ZM6.752 34.92C6.752 38.632 7.36 42.184 8.576 45.576C9.792 48.968 11.52 52.008 13.76 54.696C16 57.384 18.656 59.528 21.728 61.128C24.864 62.664 28.288 63.432 32 63.432C35.904 63.432 39.392 62.632 42.464 61.032C45.6 59.368 48.256 57.16 50.432 54.408C52.672 51.656 54.368 48.616 55.52 45.288C56.672 41.896 57.248 38.44 57.248 34.92C57.248 31.208 56.64 27.656 55.424 24.264C54.208 20.872 52.448 17.832 50.144 15.144C47.904 12.456 45.248 10.344 42.176 8.808C39.104 7.272 35.712 6.504 32 6.504C28.16 6.504 24.672 7.304 21.536 8.904C18.464 10.504 15.808 12.68 13.568 15.432C11.392 18.12 9.696 21.16 8.48 24.552C7.328 27.944 6.752 31.4 6.752 34.92Z" fill="#EB5757"/>
</svg>
