<svg width="44" height="47" viewBox="0 0 44 47" fill="none" xmlns="http://www.w3.org/2000/svg">
<path d="M22.256 46.64C19.5253 46.64 16.8587 46.32 14.256 45.68C11.696 44.9973 9.37066 43.8027 7.28 42.096C5.232 40.3893 3.58933 38.0213 2.352 34.992C1.15733 31.9627 0.559998 28.08 0.559998 23.344C0.559998 18.608 1.15733 14.7253 2.352 11.696C3.58933 8.66667 5.232 6.29867 7.28 4.59201C9.37066 2.88534 11.696 1.71201 14.256 1.07201C16.8587 0.389338 19.5253 0.0480042 22.256 0.0480042C24.9867 0.0480042 27.632 0.389338 30.192 1.07201C32.7947 1.75467 35.12 2.94934 37.168 4.65601C39.2587 6.36267 40.9013 8.73067 42.096 11.76C43.3333 14.7893 43.952 18.6507 43.952 23.344C43.952 28.0373 43.3333 31.8987 42.096 34.928C40.9013 37.9573 39.2587 40.3253 37.168 42.032C35.12 43.7387 32.7947 44.9333 30.192 45.616C27.632 46.2987 24.9867 46.64 22.256 46.64ZM22.256 35.76C25.4133 35.76 27.8027 34.8213 29.424 32.944C31.0453 31.0667 31.856 27.8667 31.856 23.344C31.856 18.8213 31.0453 15.6213 29.424 13.744C27.8027 11.8667 25.4133 10.928 22.256 10.928C19.1413 10.928 16.7733 11.888 15.152 13.808C13.5307 15.728 12.72 18.9067 12.72 23.344C12.72 27.7813 13.5307 30.96 15.152 32.88C16.7733 34.8 19.1413 35.76 22.256 35.76Z" fill="#2D9CDB"/>
</svg>
