<svg width="25" height="27" viewBox="0 0 25 27" fill="none" xmlns="http://www.w3.org/2000/svg">
<path d="M12.5 27C10.9267 27 9.39036 26.8146 7.89085 26.4437C6.41593 26.0481 5.0762 25.3558 3.87168 24.3668C2.69174 23.3777 1.74533 22.0055 1.03245 20.25C0.344149 18.4945 0 16.2445 0 13.5C0 10.7555 0.344149 8.50549 1.03245 6.75C1.74533 4.99451 2.69174 3.62225 3.87168 2.63324C5.0762 1.64423 6.41593 0.964287 7.89085 0.593408C9.39036 0.197803 10.9267 0 12.5 0C14.0733 0 15.5973 0.197803 17.0723 0.593408C18.5718 0.989011 19.9115 1.68132 21.0914 2.67033C22.296 3.65934 23.2424 5.03159 23.9307 6.78709C24.6436 8.54258 25 10.7802 25 13.5C25 16.2198 24.6436 18.4574 23.9307 20.2129C23.2424 21.9684 22.296 23.3407 21.0914 24.3297C19.9115 25.3187 18.5718 26.011 17.0723 26.4066C15.5973 26.8022 14.0733 27 12.5 27ZM12.5 20.6951C14.3191 20.6951 15.6957 20.1511 16.6298 19.0632C17.5639 17.9753 18.031 16.1209 18.031 13.5C18.031 10.8791 17.5639 9.02473 16.6298 7.93681C15.6957 6.8489 14.3191 6.30495 12.5 6.30495C10.7055 6.30495 9.3412 6.86126 8.40708 7.9739C7.47296 9.08654 7.0059 10.9286 7.0059 13.5C7.0059 16.0714 7.47296 17.9135 8.40708 19.0261C9.3412 20.1387 10.7055 20.6951 12.5 20.6951Z" fill="#2D9CDB"/>
</svg>
