<svg width="70" height="70" viewBox="0 0 70 70" fill="none" xmlns="http://www.w3.org/2000/svg">
<path d="M58.2017 11.7972C45.3884 -1.01609 24.6116 -1.01609 11.7983 11.7972C-1.01609 24.6127 -1.01609 45.3862 11.7983 58.2017C24.6116 71.015 45.3884 71.015 58.2017 58.2017C71.0161 45.3862 71.0161 24.6127 58.2017 11.7972ZM50.3125 57.9666L46.0906 53.3291C42.7197 55.5122 38.8467 56.7066 34.7911 56.7066C22.8452 56.7066 13.125 46.3367 13.125 33.9052H21.7033C21.7033 41.8173 27.5745 47.6645 34.7911 47.6645C36.5848 47.6645 38.3206 47.2773 39.9219 46.5533L35.6103 41.8173H50.3125V57.9666ZM48.3088 33.9052C48.3088 26.4097 42.4463 20.7998 35.2406 20.7998C33.3957 20.7976 31.5711 21.1856 29.8867 21.9384L34.4881 26.4097H19.6875V12.0302L23.4675 15.7019C26.9752 13.4225 31.0341 12.2347 35.2406 12.2347C47.1691 12.2347 56.875 22.1233 56.875 33.9041H48.3088V33.9052Z" fill="black"/>
</svg>
